<svg xmlns="http://www.w3.org/2000/svg" viewBox="0 0 700 400"><title>junior-cold-cup 虛構情境示意</title><defs><linearGradient id="bg" x2="1" y2="1"><stop stop-color="#142b3f"/><stop offset="1" stop-color="#355e6a"/></linearGradient></defs><path fill="url(#bg)" d="M0 0h700v400H0z"/><path d="M180 80h300l-30 240H210z" fill="#b4d6db" stroke="#f2eee1" stroke-width="8"/><path d="M195 170h270l-15 150H210z" fill="#629aaf"/><path d="M180 150q-14 24 0 24q14 0 0-24" fill="#c9e9e8"/><path d="M485 190q-14 24 0 24q14 0 0-24" fill="#c9e9e8"/><path d="M475 230q-14 24 0 24q14 0 0-24" fill="#c9e9e8"/><path d="M190 270q-14 24 0 24q14 0 0-24" fill="#c9e9e8"/><ellipse cx="330" cy="345" rx="190" ry="15" fill="#668994"/></svg>