<svg xmlns="http://www.w3.org/2000/svg" viewBox="0 0 800 520" role="img"><title>虛構地圖中學校與圖書館隔河，步行路線需要經過橋，含圖例與北方標示</title><rect width="800" height="520" fill="#efecd7"/><g font-family="Arial,Microsoft JhengHei,sans-serif"><path d="M0 0H260l-60 100 70 160-110 260H0ZM800 0H570l-30 180 130 110-50 230h180Z" fill="#b9cf9f"/><path d="M399-20Q278 120 398 256T362 560" stroke="#6eb4c2" stroke-width="45" fill="none"/><path d="M70 280h295l50 25 330-70" fill="none" stroke="#fff8e0" stroke-width="22" stroke-linecap="round" stroke-linejoin="round"/><path d="M70 280h295l50 25 330-70" fill="none" stroke="#cb995f" stroke-width="10" stroke-linecap="round" stroke-linejoin="round"/><rect x="337" y="249" width="103" height="79" rx="0" fill="#685e51"/><path d="M334 261h111" fill="none" stroke="#f5e4bb" stroke-width="5" stroke-linecap="round" stroke-linejoin="round"/><path d="M334 280h111" fill="none" stroke="#f5e4bb" stroke-width="5" stroke-linecap="round" stroke-linejoin="round"/><path d="M334 299h111" fill="none" stroke="#f5e4bb" stroke-width="5" stroke-linecap="round" stroke-linejoin="round"/><path d="M334 318h111" fill="none" stroke="#f5e4bb" stroke-width="5" stroke-linecap="round" stroke-linejoin="round"/><rect x="70" y="160" width="103" height="70" rx="0" fill="#b95843"/><text x="76" y="205" font-size="30" fill="white">學校</text><rect x="581" y="151" width="138" height="69" rx="0" fill="#38697e"/><text x="589" y="196" font-size="29" fill="white">圖書館</text><path d="M674  60v-32m-12 12 12-12 12 12" fill="none" stroke="#314e58" stroke-width="4" stroke-linecap="round" stroke-linejoin="round"/><text x="650" y="92" font-size="24" fill="#233b4c">北</text><text x="32" y="50" font-size="31" fill="#233b4c">隔著河，不一定能直走</text><rect x="30" y="389" width="738" height="100" rx="8" fill="#fffcf1"/><text x="50" y="424" font-size="23" fill="#233b4c">圖例：藍色是河流，棕色是道路與橋。</text><text x="50" y="462" font-size="21" fill="#233b4c">虛構小鎮・非實地導航圖・未依比例繪製</text></g></svg>