<svg xmlns="http://www.w3.org/2000/svg" width="1200" height="720" viewBox="0 0 1200 720"><rect width="1200" height="720" fill="#eaf0e4"/><path d="M100 440 Q380 280 570 390 T1110 300" fill="none" stroke="#c9904b" stroke-width="18" stroke-dasharray="5 28"/><g transform="translate(220 370)"><ellipse rx="34" ry="26" fill="#334d41"/><circle cx="48" cy="-4" r="22" fill="#334d41"/><ellipse cx="-46" rx="35" ry="29" fill="#334d41"/><path d="M-15 -10l-25 -48M5 -10l20 -48M-15 10l-25 48M5 10l20 48M55 -20l18 -25M60 -10l30 -10" stroke="#334d41" stroke-width="9" fill="none"/></g><g transform="translate(460 395)"><ellipse rx="34" ry="26" fill="#334d41"/><circle cx="48" cy="-4" r="22" fill="#334d41"/><ellipse cx="-46" rx="35" ry="29" fill="#334d41"/><path d="M-15 -10l-25 -48M5 -10l20 -48M-15 10l-25 48M5 10l20 48M55 -20l18 -25M60 -10l30 -10" stroke="#334d41" stroke-width="9" fill="none"/></g><g transform="translate(710 370)"><ellipse rx="34" ry="26" fill="#334d41"/><circle cx="48" cy="-4" r="22" fill="#334d41"/><ellipse cx="-46" rx="35" ry="29" fill="#334d41"/><path d="M-15 -10l-25 -48M5 -10l20 -48M-15 10l-25 48M5 10l20 48M55 -20l18 -25M60 -10l30 -10" stroke="#334d41" stroke-width="9" fill="none"/></g><g transform="translate(950 395)"><ellipse rx="34" ry="26" fill="#334d41"/><circle cx="48" cy="-4" r="22" fill="#334d41"/><ellipse cx="-46" rx="35" ry="29" fill="#334d41"/><path d="M-15 -10l-25 -48M5 -10l20 -48M-15 10l-25 48M5 10l20 48M55 -20l18 -25M60 -10l30 -10" stroke="#334d41" stroke-width="9" fill="none"/></g></svg>
