<svg xmlns="http://www.w3.org/2000/svg" width="1200" height="720" viewBox="0 0 1200 720"><defs><pattern id="grain" width="18" height="18" patternUnits="userSpaceOnUse"><circle cx="2" cy="3" r=".8" fill="#243b39" opacity=".06"/></pattern></defs><rect width="1200" height="720" fill="#dce7e8"/><path d="M0 577Q487 510 1200 583V720H0" fill="#a1b8a3"/><g transform="translate(807 190) scale(1.5)" fill="#fbfcf6"><ellipse rx="95" ry="34"/><circle cx="-32" cy="-25" r="42"/><circle cx="30" cy="-35" r="53"/></g><path d="M662 299l-18 42" stroke="#8caab4" stroke-width="7" stroke-linecap="round"/><path d="M734 299l-18 42" stroke="#8caab4" stroke-width="7" stroke-linecap="round"/><path d="M806 299l-18 42" stroke="#8caab4" stroke-width="7" stroke-linecap="round"/><path d="M878 299l-18 42" stroke="#8caab4" stroke-width="7" stroke-linecap="round"/><path d="M950 299l-18 42" stroke="#8caab4" stroke-width="7" stroke-linecap="round"/><path d="M318 380Q559 96 800 380Z" fill="#d89b76"/><path d="M318 380Q398 343 478 380Q559 343 638 380Q719 343 800 380" fill="#dce7e8"/><path d="M559 233V550Q559 610 608 583" fill="none" stroke="#4e625b" stroke-width="12" stroke-linecap="round"/><g transform="translate(449 528) scale(0.9)"><path d="M-20 88Q-170 125-160 28Q-88 26-53 73" fill="#d8874e"/><path d="M-159 29Q-172 82-131 104L-112 59Z" fill="#fff4da"/><ellipse cy="60" rx="52" ry="69" fill="#d8874e"/><path d="M-45-29L-65-88L-9-56L30-57L71-89L50-24Q44 41 4 51Q-39 35-45-29" fill="#e99858"/><path d="M-42-18L0 8L48-18Q44 29 3 47Q-34 28-42-18" fill="#fff4da"/><circle cx="-24" cy="-19" r="5" fill="#243b39"/><circle cx="28" cy="-19" r="5" fill="#243b39"/><path d="M-5 7H12L4 18Z" fill="#243b39"/><path d="M-38 71L4 82L46 68V116L4 130L-38 118Z" fill="#f1e7c9" stroke="#326653" stroke-width="5"/><path d="M4 82V130" stroke="#326653" stroke-width="4"/></g><path d="M822 605L921 561L1026 605L973 657L860 651Z" fill="#f6f2de"/><path d="M921 561L944 612L822 605M944 612L1026 605" stroke="#889f98" stroke-width="4" fill="none"/><rect width="1200" height="720" fill="url(#grain)"/></svg>
