<svg xmlns="http://www.w3.org/2000/svg" width="1200" height="720" viewBox="0 0 1200 720"><defs><pattern id="grain" width="18" height="18" patternUnits="userSpaceOnUse"><circle cx="2" cy="3" r=".8" fill="#243b39" opacity=".06"/></pattern></defs><rect width="1200" height="720" fill="#d7e9ed"/><circle cx="968" cy="151" r="82" fill="#edca74"/><g transform="translate(330 172) scale(1.8)" fill="#fbfcf6"><ellipse rx="95" ry="34"/><circle cx="-32" cy="-25" r="42"/><circle cx="30" cy="-35" r="53"/></g><path d="M0 510L330 275L575 510L825 315L1200 540V720H0" fill="#72958e"/><path d="M225 353L330 275L415 354L352 337L310 363L283 333Z" fill="#f8faf4"/><path d="M0 554Q290 515 541 575Q874 620 1200 541V720H0" fill="#699fba"/><path d="M-20 635Q125 590 266 635T555 635T844 635T1230 635" stroke="#e5f2eb" stroke-width="8" fill="none"/><path d="M180 280l-14 34" stroke="#699fba" stroke-width="8" stroke-linecap="round"/><path d="M260 299l-14 34" stroke="#699fba" stroke-width="8" stroke-linecap="round"/><path d="M350 277l-14 34" stroke="#699fba" stroke-width="8" stroke-linecap="round"/><path d="M440 295l-14 34" stroke="#699fba" stroke-width="8" stroke-linecap="round"/><path d="M987 442Q1064 346 1027 272" stroke="#f6f7df" stroke-width="10" fill="none" stroke-dasharray="15 14"/><path d="M1003 297L1026 268L1059 287" stroke="#f6f7df" stroke-width="10" fill="none"/><rect width="1200" height="720" fill="url(#grain)"/></svg>
